<?xml version="1.0" encoding="UTF-8"?>
<svg width="92px" height="92px" viewBox="0 0 92 92" version="1.1" xmlns="http://www.w3.org/2000/svg" xmlns:xlink="http://www.w3.org/1999/xlink">
    <!-- Generator: sketchtool 59 (101010) - https://sketch.com -->
    <title>273D5BA3-D156-43A0-BF51-2E8446F437D6@1.5x</title>
    <desc>Created with sketchtool.</desc>
    <g id="Web" stroke="none" stroke-width="1" fill="none" fill-rule="evenodd">
        <g id="mobile" transform="translate(-228.000000, -1959.000000)">
            <g id="Group-25" transform="translate(221.000000, 1959.000000)">
                <g id="exchange" transform="translate(7.000000, 0.000000)">
                    <circle id="Oval-Copy-2" fill="#6050DC" cx="46" cy="46" r="46"></circle>
                    <g id="transfer" transform="translate(22.000000, 27.000000)" fill="#FFFFFF" fill-rule="nonzero">
                        <path d="M47.2863007,12.4662002 L35.3396005,0.519500008 C34.6730005,-0.146900002 33.5924005,-0.146700002 32.9260005,0.519900008 C32.6061005,0.839900013 32.4264005,1.27370002 32.4263005,1.72620003 L32.4263005,6.8462001 L20.4796003,6.8462001 C19.5370003,6.8462001 18.7729003,7.61030011 18.7729003,8.55290013 C18.7729003,9.49550014 19.5370003,10.2596002 20.4796003,10.2596002 L34.1330005,10.2596002 C35.0756005,10.2596002 35.8397005,9.49550014 35.8397005,8.55290013 L35.8397005,5.84600009 L43.6665007,13.6728002 L35.8397005,21.4996003 L35.8397005,18.7928003 C35.8397005,17.8502003 35.0756005,17.0861003 34.1330005,17.0861003 L15.3596002,17.0861003 L15.3596002,11.9661002 C15.3594002,11.0235002 14.5951002,10.2596002 13.6526002,10.2598002 C13.2002002,10.2599002 12.7663002,10.4396002 12.4463002,10.7595002 L0.499700007,22.7062003 C-0.166600002,23.3727003 -0.166600002,24.4530004 0.499700007,25.1194004 L12.4464002,37.0661006 C12.7664002,37.3862006 13.2004002,37.5662088 13.6530002,37.5662088 C13.8773002,37.5669006 14.0996002,37.5228006 14.3066002,37.4365006 C14.9442002,37.1721006 15.3598002,36.5498005 15.3596002,35.8595005 L15.3596002,30.7395005 L27.3063004,30.7395005 C28.2489004,30.7395005 29.0130004,29.9754004 29.0130004,29.0328004 C29.0130004,28.0902004 28.2489004,27.3261004 27.3063004,27.3261004 L13.6530002,27.3261004 C12.7104002,27.3261004 11.9463002,28.0902004 11.9463002,29.0328004 L11.9463002,31.7396005 L4.11950006,23.9128004 L11.9463002,16.0860002 L11.9463002,18.7928003 C11.9463002,19.7354003 12.7104002,20.4995003 13.6530002,20.4995003 L32.4263005,20.4995003 L32.4263005,25.6195004 C32.4265005,26.5621004 33.1908005,27.3260004 34.1333005,27.3258004 C34.5857005,27.3257004 35.0196005,27.1460004 35.3396005,26.8261004 L47.2863007,14.8794002 C47.9525007,14.2129002 47.9525007,13.1326002 47.2863007,12.4662002 Z" id="Path"></path>
                    </g>
                </g>
            </g>
        </g>
    </g>
</svg>