<svg xmlns="http://www.w3.org/2000/svg" xmlns:xlink="http://www.w3.org/1999/xlink" width="67" height="64" viewBox="0 0 67 64">
    <defs>
        <path id="ubugkq8zda" d="M0 0.089L66.221 0.089 66.221 65.322 0 65.322z"/>
    </defs>
    <g fill="none" fill-rule="evenodd">
        <g>
            <g>
                <g>
                    <path fill="#070707" d="M44.992 22.996L26.237 38.94c-.24.23-.24.462-.24.693l-.722 6.24c0 .23-.24.23-.481 0l-2.886-9.244c-.24-.462 0-.925.481-1.156l21.882-13.172c.721-.23 1.202.462.721.694" transform="translate(-795 -5460) translate(0 4699) translate(795 761)"/>
                    <g transform="translate(-795 -5460) translate(0 4699) translate(795 761)">
                        <mask id="fuu6dv8tbb" fill="#fff">
                            <use xlink:href="#ubugkq8zda"/>
                        </mask>
                        <path fill="#070707" d="M52.605 18.296L45.94 49.64c-.238 1.382-2.142 2.074-3.332 1.152l-10.236-7.375-5.236 5.07c-.952.922-2.38.461-2.857-.691l-3.808-11.523-9.997-2.997c-1.428-.46-1.428-2.074 0-2.535l39.75-14.98c1.19-.23 2.857.922 2.38 2.535M33.088.09C24.04.09 15.71 3.546 9.76 9.31 3.809 15.068 0 23.135 0 31.893c0 8.757 3.57 16.824 9.76 22.585 5.95 5.762 14.281 9.219 23.327 9.219 9.045 0 17.376-3.457 23.326-9.219 5.951-5.761 9.76-13.828 9.76-22.585C65.935 14.378 51.174.089 33.087.089" mask="url(#fuu6dv8tbb)"/>
                    </g>
                </g>
            </g>
        </g>
    </g>
</svg>
