<?xml version="1.0" encoding="UTF-8"?>
<svg width="40px" height="40px" viewBox="0 0 40 40" version="1.1" xmlns="http://www.w3.org/2000/svg" xmlns:xlink="http://www.w3.org/1999/xlink">
    <!-- Generator: sketchtool 59 (101010) - https://sketch.com -->
    <title>D3851347-3998-4953-A458-72924B94B492@1.5x</title>
    <desc>Created with sketchtool.</desc>
    <g id="Style-Guide" stroke="none" stroke-width="1" fill="none" fill-rule="evenodd">
        <g id="Style-Guide---Website" transform="translate(-1225.000000, -629.000000)">
            <g id="Group-13" transform="translate(1225.000000, 629.000000)">
                <g id="Group-12-Copy" fill="#FFFFFF">
                    <path d="M20,0 C31.045695,0 40,8.954305 40,20 C40,31.045695 31.045695,40 20,40 C8.954305,40 0,31.045695 0,20 C0,8.954305 8.954305,0 20,0 Z M27.039,13.574 C24.619,13.574 22.995,14.902 22.332,16.161 L22.262,16.161 L22.262,13.976 L17.489,13.976 L17.489,29.999 L22.459,29.999 L22.459,22.065 C22.459,19.976 22.855,17.956 25.442,17.956 C27.991,17.956 28.029,20.34 28.029,22.199 L28.029,30 L32.994,30 L32.994,29.999 L33,29.999 L33,21.197 C33,16.891 32.073,13.574 27.039,13.574 Z M14.372,13.977 L9.396,13.977 L9.396,30 L14.372,30 L14.372,13.977 Z M11.882,6 C10.291,6 9,7.291 9,8.882 C9,10.473 10.291,11.791 11.882,11.791 C13.473,11.791 14.764,10.473 14.764,8.882 C14.763,7.291 13.472,6 11.882,6 Z" id="Combined-Shape"></path>
                </g>
                <g id="linkedin" transform="translate(9.000000, 6.000000)"></g>
            </g>
        </g>
    </g>
</svg>