<?xml version="1.0" encoding="UTF-8"?>
<svg width="40px" height="40px" viewBox="0 0 40 40" version="1.1" xmlns="http://www.w3.org/2000/svg" xmlns:xlink="http://www.w3.org/1999/xlink">
    <!-- Generator: sketchtool 59 (101010) - https://sketch.com -->
    <title>C11ED971-1D60-41EE-AED6-AECB3612BA90@1.5x</title>
    <desc>Created with sketchtool.</desc>
    <g id="Web" stroke="none" stroke-width="1" fill="none" fill-rule="evenodd" opacity="0.5">
        <g id="lp" transform="translate(-1731.000000, -6581.000000)">
            <g id="Group-31" transform="translate(1.000000, 6551.000000)">
                <g id="Group-14" transform="translate(1570.000000, 30.000000)">
                    <g id="Group-13" transform="translate(160.000000, 0.000000)">
                        <g id="Group-12-Copy" fill="#FFFFFF">
                            <circle id="Oval" cx="20" cy="20" r="20"></circle>
                        </g>
                        <g id="linkedin" transform="translate(9.000000, 6.000000)" fill="#000000" fill-rule="nonzero">
                            <path d="M23.994,24 L23.994,23.999 L24,23.999 L24,15.197 C24,10.891 23.073,7.574 18.039,7.574 C15.619,7.574 13.995,8.902 13.332,10.161 L13.262,10.161 L13.262,7.976 L8.489,7.976 L8.489,23.999 L13.459,23.999 L13.459,16.065 C13.459,13.976 13.855,11.956 16.442,11.956 C18.991,11.956 19.029,14.34 19.029,16.199 L19.029,24 L23.994,24 Z" id="Path"></path>
                            <polygon id="Path" points="0.396 7.977 5.372 7.977 5.372 24 0.396 24"></polygon>
                            <path d="M2.882,0 C1.291,0 0,1.291 0,2.882 C0,4.473 1.291,5.791 2.882,5.791 C4.473,5.791 5.764,4.473 5.764,2.882 C5.763,1.291 4.472,0 2.882,0 Z" id="Path"></path>
                        </g>
                    </g>
                </g>
            </g>
        </g>
    </g>
</svg>