<?xml version="1.0" encoding="UTF-8"?>
<svg width="92px" height="92px" viewBox="0 0 92 92" version="1.1" xmlns="http://www.w3.org/2000/svg" xmlns:xlink="http://www.w3.org/1999/xlink">
    <!-- Generator: sketchtool 59 (101010) - https://sketch.com -->
    <title>D7340295-7DE7-4314-AA7A-D6C1C37B31F1@1.5x</title>
    <desc>Created with sketchtool.</desc>
    <g id="Web" stroke="none" stroke-width="1" fill="none" fill-rule="evenodd">
        <g id="mobile" transform="translate(-55.000000, -2125.000000)">
            <g id="Group-26" transform="translate(40.000000, 2125.000000)">
                <g id="play" transform="translate(15.000000, 0.000000)">
                    <circle id="Oval-Copy-3" fill="#6050DC" cx="46" cy="46" r="46"></circle>
                    <g id="console" transform="translate(14.000000, 25.000000)" fill="#FFFFFF" fill-rule="nonzero">
                        <path d="M64.1946057,29.1962026 C64.0346057,25.5162023 63.3946057,21.4362019 62.4346056,17.5962016 C61.4746055,13.9162012 60.2746054,10.4762009 58.8346053,7.8362007 C53.2346048,-2.00380018 47.1546042,-0.483800043 39.8746036,1.43620013 C37.5546034,1.99620018 35.0746031,2.63620024 32.5146029,2.87620026 L31.7146028,2.87620026 C29.1546026,2.63620024 26.6746024,1.99620018 24.3546022,1.43620013 C17.0746015,-0.403800036 10.994601,-2.00380018 5.39460048,7.91620071 C3.95460035,10.5562009 2.67460024,13.9962013 1.79460016,17.6762016 C0.834600075,21.5162019 0.194600017,25.5962023 0.0346000031,29.2762026 C-0.125400011,33.356203 0.274600025,36.3162032 1.1546001,38.3962034 C2.03460018,40.3162036 3.3146003,41.5162037 4.99460045,41.9962038 C6.51460058,42.3962038 8.27460074,42.2362038 10.1146009,41.4362037 C13.2346012,40.1562036 16.8346015,37.4362033 20.3546018,34.1562031 C22.834602,31.7562028 27.4746025,30.5562027 32.1146029,30.5562027 C36.7546033,30.5562027 41.3946037,31.7562028 43.8746039,34.1562031 C47.3946042,37.4362033 50.9946046,40.1562036 54.1146048,41.4362037 C55.954605,42.1562038 57.7146052,42.3962038 59.2346053,41.9962038 C60.8346054,41.5162037 62.1946056,40.3962036 63.0746056,38.3162034 C63.9546057,36.3162032 64.3546058,33.356203 64.1946057,29.1962026 Z M60.3546054,37.1962033 C59.8746054,38.3162034 59.2346053,38.9562035 58.4346052,39.1962035 C57.5546051,39.4362035 56.434605,39.2762035 55.1546049,38.7962035 C52.3546047,37.6762034 49.0746044,35.1962031 45.8746041,32.1562029 C42.8346038,29.1162026 37.4746034,27.5962025 32.1146029,27.5962025 C26.7546024,27.5962025 21.3946019,29.1162026 18.2746016,31.9962029 C14.9946013,35.0362031 11.714601,37.5962034 8.9946008,38.6362035 C7.71460069,39.1162035 6.59460059,39.3562035 5.71460051,39.0362035 C4.91460044,38.7962035 4.27460038,38.1562034 3.79460034,37.0362033 C3.15460028,35.5162032 2.83460025,33.036203 2.99460027,29.3562026 C3.15460028,25.9162023 3.71460033,21.996202 4.67460042,18.3162016 C5.5546005,14.8762013 6.6746006,11.676201 8.03460072,9.27620083 C12.4346011,1.35620012 17.5546016,2.63620024 23.6346021,4.23620038 C26.1146023,4.87620044 28.6746026,5.51620049 31.4746028,5.75620051 C31.5546028,5.75620051 31.5546028,5.75620051 31.6346028,5.75620051 L32.5146029,5.75620051 C32.5946029,5.75620051 32.5946029,5.75620051 32.6746029,5.75620051 C35.5546032,5.51620049 38.1146034,4.87620044 40.5946036,4.23620038 C46.6746042,2.71620024 51.7946046,1.35620012 56.194605,9.27620083 C57.5546051,11.676201 58.6746052,14.7962013 59.5546053,18.3162016 C60.4346054,21.996202 61.0746055,25.8362023 61.2346055,29.3562026 C61.3946055,33.036203 61.0746055,35.5162032 60.3546054,37.1962033 Z" id="Shape"></path>
                        <path d="M24.7546022,13.5962012 C23.9546021,12.8762012 22.9946021,12.3162011 21.874602,12.2362011 C21.7946019,11.196201 21.3146019,10.1562009 20.5946018,9.43620084 L20.5146018,9.35620084 C19.6346018,8.47620076 18.5146017,7.99620071 17.2346015,7.99620071 C15.9546014,7.99620071 14.7546013,8.55620076 13.9546012,9.35620084 C13.2346012,10.0762009 12.6746011,11.116201 12.5946011,12.2362011 C11.474601,12.3162011 10.5146009,12.7962011 9.71460087,13.5162012 L9.63460086,13.5962012 C8.75460078,14.4762013 8.27460074,15.5962014 8.27460074,16.8762015 C8.27460074,18.1562016 8.83460079,19.3562017 9.63460086,20.1562018 C10.4346009,20.9562019 11.394601,21.4362019 12.5946011,21.5162019 C12.6746011,22.636202 13.1546012,23.6762021 13.9546012,24.3962022 C14.8346013,25.2762023 15.9546014,25.7562023 17.2346015,25.7562023 C18.5146017,25.7562023 19.7146018,25.1962023 20.5146018,24.3962022 C21.2346019,23.5962021 21.7946019,22.636202 21.874602,21.5162019 C22.9946021,21.4362019 24.0346021,20.9562019 24.7546022,20.1562018 C25.6346023,19.2762017 26.1146023,18.1562016 26.1146023,16.8762015 C26.1146023,15.5962014 25.5546023,14.3962013 24.7546022,13.5962012 Z M22.754602,18.0762016 C22.434602,18.3962016 22.034602,18.5562017 21.5546019,18.5562017 L20.4346018,18.5562017 C19.6346018,18.5562017 18.9146017,19.1962017 18.9146017,20.0762018 L18.9146017,21.1162019 C18.9146017,21.5962019 18.7546017,21.996202 18.4346016,22.316202 C18.1146016,22.636202 17.7146016,22.796202 17.234601,22.796202 C16.7546015,22.796202 16.3546015,22.636202 16.0346014,22.316202 C15.7146014,21.996202 15.5546014,21.5962019 15.5546014,21.1162019 L15.5546014,19.9962018 C15.5546014,19.1962017 14.9146013,18.4762017 14.0346013,18.4762017 L12.9146012,18.4762017 C12.4346011,18.4762017 12.0346011,18.3162016 11.714601,17.9962016 C11.474601,17.7562016 11.234601,17.3562016 11.234601,16.876201 C11.234601,16.3962015 11.394601,15.9962014 11.714601,15.6762014 C11.714601,15.6762014 11.714601,15.6762014 11.7946011,15.5962014 C12.1146011,15.3562014 12.5146011,15.1962014 12.9146012,15.1962014 L14.0346013,15.1962014 C14.8346013,15.1962014 15.5546014,14.5562013 15.5546014,13.6762012 L15.5546014,12.5562011 C15.5546014,12.0762011 15.7146014,11.676201 16.0346014,11.356201 C16.3546015,11.036201 16.7546015,10.876201 17.234601,10.876201 C17.7146016,10.876201 18.1146016,11.036201 18.4346016,11.356201 C18.4346016,11.356201 18.4346016,11.356201 18.5146017,11.436201 C18.7546017,11.7562011 18.9146017,12.1562011 18.9146017,12.5562011 L18.9146017,13.6762012 C18.9146017,14.4762013 19.5546017,15.1962014 20.4346018,15.1962014 L21.5546019,15.1962014 C22.034602,15.1962014 22.434602,15.3562014 22.754602,15.6762014 C23.0746021,15.9962014 23.234601,16.3962015 23.234601,16.876201 C23.234601,17.3562016 23.0746021,17.7562016 22.754602,18.0762016 Z" id="Shape"></path>
                        <circle id="Oval" cx="46.0346041" cy="11.196201" r="2.80000025"></circle>
                        <circle id="Oval" cx="46.0346041" cy="22.556202" r="2.80000025"></circle>
                        <circle id="Oval" cx="40.3546036" cy="16.8762015" r="2.80000025"></circle>
                        <circle id="Oval" cx="51.7146046" cy="16.8762015" r="2.80000025"></circle>
                    </g>
                </g>
            </g>
        </g>
    </g>
</svg>