<?xml version="1.0" encoding="UTF-8"?>
<svg width="92px" height="92px" viewBox="0 0 92 92" version="1.1" xmlns="http://www.w3.org/2000/svg" xmlns:xlink="http://www.w3.org/1999/xlink">
    <!-- Generator: sketchtool 59 (101010) - https://sketch.com -->
    <title>77321513-7AB3-4200-91A8-C2911C13822A@1.5x</title>
    <desc>Created with sketchtool.</desc>
    <g id="Web" stroke="none" stroke-width="1" fill="none" fill-rule="evenodd">
        <g id="mobile" transform="translate(-142.000000, -2270.000000)">
            <g id="Group-29" transform="translate(132.000000, 2270.000000)">
                <g id="playcent" transform="translate(10.000000, 0.000000)">
                    <circle id="Oval-Copy-5" fill="#6050DC" cx="46" cy="46" r="46"></circle>
                    <g id="discount" transform="translate(21.000000, 20.000000)" fill="#FFFFFF" fill-rule="nonzero">
                        <path d="M46.7958007,26.3633004 C46.5898007,25.9418004 46.5898007,25.4584004 46.7958007,25.0370004 L48.7054007,21.1305003 C49.7686007,18.9554003 48.9262007,16.3629002 46.7876007,15.2282002 L42.9466006,13.1902002 C42.5322006,12.9704002 42.2481006,12.5792002 42.1670006,12.1173002 L41.4158006,7.83440012 C40.9975006,5.44980008 38.7917006,3.84740006 36.3950005,4.18650006 L32.0897005,4.79550007 C31.6250005,4.86110007 31.1655005,4.71170007 30.8284005,4.38560007 L27.7033004,1.36240002 C25.9632004,-0.321000005 23.2372003,-0.321100005 21.4972003,1.36240002 L18.3720003,4.38590007 C18.0348003,4.71210007 17.5753003,4.86120007 17.1107003,4.79580007 L12.8054002,4.18680006 C10.4079002,3.84750006 8.20290012,5.45010008 7.78460012,7.83470012 L7.0334001,12.1174002 C6.9523001,12.5794002 6.6682001,12.9705002 6.25390009,13.1904002 L2.41290004,15.2284002 C0.274300004,16.3630002 -0.568100008,18.9557003 0.495100007,21.1308003 L2.40460004,25.0372004 C2.61060004,25.4587004 2.61060004,25.9421004 2.40460004,26.3635004 L0.495000007,30.2699005 C-0.568200008,32.4450005 0.274200004,35.0375005 2.41280004,36.1722005 L6.25380009,38.2102006 C6.6682001,38.4300006 6.9523001,38.8212006 7.0334001,39.2831006 L7.78460012,43.5660006 C8.16540012,45.7368007 10.0268001,47.2592007 12.1661002,47.2590007 C12.3768002,47.2590007 12.5906002,47.2442007 12.8055002,47.2138007 L17.1108003,46.6048007 C17.5751003,46.5389007 18.0349003,46.6886007 18.3721003,47.0147007 L21.4972003,50.0379007 C22.3674003,50.8797008 23.4836003,51.3004008 24.6002004,51.3004008 C25.7165004,51.3004008 26.8334004,50.8795008 27.7032004,50.0379007 L30.8284005,47.0147007 C31.1656005,46.6886007 31.6252005,46.5396007 32.0897005,46.6048007 L36.3950005,47.2138007 C38.7928006,47.5530007 40.9975006,45.9505007 41.4158006,43.5659006 L42.1671006,39.2832006 C42.2482006,38.8212006 42.5323006,38.4301006 42.9466006,38.2102006 L46.7876007,36.1722005 C48.9262007,35.0376005 49.7686007,32.4449005 48.7054007,30.2698005 L46.7958007,26.3633004 Z M45.4035007,33.5635005 L41.5625006,35.6015005 C40.3379006,36.2514005 39.4980006,37.4072006 39.2585006,38.7728006 L38.5073006,43.0556006 C38.3658006,43.8624007 37.6199006,44.4043007 36.8086005,44.2898007 L32.5033005,43.6808007 C31.1303005,43.4863006 29.7717004,43.9282007 28.7752004,44.8921007 L25.6500004,47.9152007 C25.0614004,48.4846007 24.1391004,48.4846007 23.5503004,47.9152007 L20.4252003,44.8920007 C19.5830003,44.0773007 18.4820003,43.6358007 17.3326003,43.6358007 C17.1220003,43.6358007 16.9097003,43.6506007 16.6971002,43.6807007 L12.3918002,44.2897007 C11.5812002,44.4043007 10.8347002,43.8623007 10.6931002,43.0555006 L9.94180015,38.7726006 C9.70220014,37.4070006 8.86240013,36.2511005 7.63770011,35.6014005 L3.79670006,33.5634005 C3.07310005,33.1795005 2.78810004,32.3024005 3.14780005,31.5665005 L5.05740008,27.6600004 C5.66620008,26.4144004 5.66620008,24.9858004 5.05740008,23.7402004 L3.14780005,19.8337003 C2.78810004,19.0978003 3.07310005,18.2207003 3.79670006,17.8368003 L7.63770011,15.7988002 C8.86230013,15.1489002 9.70220014,13.9931002 9.94170015,12.6275002 L10.6929002,8.34470012 C10.8345002,7.53790011 11.5803002,6.9959001 12.3916002,7.11050011 L16.6969002,7.71950012 C18.0694003,7.91380012 19.4285003,7.47210011 20.4250003,6.5082001 L23.5502004,3.48500005 C24.1388004,2.91560004 25.0611004,2.91560004 25.6499004,3.48500005 L28.7750004,6.5082001 C29.7715004,7.47220011 31.1304005,7.91380012 32.5031005,7.71950012 L36.8084005,7.11050011 C37.6191006,6.9958001 38.3656006,7.53790011 38.5071006,8.34470012 L39.2583006,12.6276002 C39.4979006,13.9932002 40.3377006,15.1491002 41.5624006,15.7988002 L45.4034007,17.8368003 C46.1270007,18.2207003 46.4120007,19.0978003 46.0523007,19.8337003 L44.1427007,23.7401004 C43.5339006,24.9856004 43.5339006,26.4144004 44.1427007,27.6599004 L46.0523007,31.5663005 C46.4121007,32.3024005 46.1271007,33.1796005 45.4035007,33.5635005 Z" id="Shape"></path>
                        <path d="M35.3886005,14.9116002 C34.8121005,14.3350002 33.8771005,14.3350002 33.3005005,14.9116002 L13.8116002,34.4006005 C13.2350002,34.9772005 13.2350002,35.9121005 13.8116002,36.4887005 C14.0999002,36.7770005 14.4778002,36.9212006 14.8556002,36.9212006 C15.2334002,36.9212006 15.6114002,36.7771005 15.8996002,36.4887005 L35.3885005,16.9998003 C35.9653005,16.4231002 35.9653005,15.4883002 35.3886005,14.9116002 Z" id="Path"></path>
                        <path d="M18.6941003,12.4116002 C15.7089002,12.4116002 13.2802002,14.8403002 13.2802002,17.8255003 C13.2802002,20.8107003 15.7089002,23.2394003 18.6941003,23.2394003 C21.6793003,23.2394003 24.1080004,20.8107003 24.1080004,17.8255003 C24.1080004,14.8403002 21.6793003,12.4116002 18.6941003,12.4116002 Z M18.6941003,20.2863003 C17.3372003,20.2863003 16.2333002,19.1824003 16.2333002,17.8254003 C16.2333002,16.4685002 17.3372003,15.3646002 18.6941003,15.3646002 C20.0510003,15.3646002 21.1550003,16.4685002 21.1550003,17.8254003 C21.1549003,19.1824003 20.0510003,20.2863003 18.6941003,20.2863003 Z" id="Shape"></path>
                        <path d="M30.5061005,28.1610004 C27.5209004,28.1610004 25.0922004,30.5897005 25.0922004,33.5749005 C25.0922004,36.5601005 27.5209004,38.9888006 30.5061005,38.9888006 C33.4913005,38.9888006 35.9200005,36.5601005 35.9200005,33.5749005 C35.9200005,30.5897005 33.4913005,28.1610004 30.5061005,28.1610004 Z M30.5061005,36.0357005 C29.1492004,36.0357005 28.0452004,34.9318005 28.0452004,33.5749005 C28.0452004,32.2180005 29.1491004,31.1141005 30.5061005,31.1141005 C31.8630005,31.1141005 32.9669005,32.2180005 32.9669005,33.5749005 C32.9669005,34.9318005 31.8630005,36.0357005 30.5061005,36.0357005 Z" id="Shape"></path>
                    </g>
                </g>
            </g>
        </g>
    </g>
</svg>