<?xml version="1.0" encoding="UTF-8"?>
<svg width="92px" height="92px" viewBox="0 0 92 92" version="1.1" xmlns="http://www.w3.org/2000/svg" xmlns:xlink="http://www.w3.org/1999/xlink">
    <!-- Generator: sketchtool 59 (101010) - https://sketch.com -->
    <title>3CC1A52B-091B-4A05-9C6C-613007A8122C@1.5x</title>
    <desc>Created with sketchtool.</desc>
    <g id="Web" stroke="none" stroke-width="1" fill="none" fill-rule="evenodd">
        <g id="mobile" transform="translate(-229.000000, -2125.000000)">
            <g id="Group-28" transform="translate(214.000000, 2125.000000)">
                <g id="staking" transform="translate(15.000000, 0.000000)">
                    <circle id="Oval-Copy-4" fill="#6050DC" cx="46" cy="46" r="46"></circle>
                    <g id="bar-chart" transform="translate(20.000000, 20.000000)" fill="#FFFFFF" fill-rule="nonzero">
                        <path d="M49.7020007,48.1804007 L47.1319007,48.1804007 L47.1319007,19.6587003 L49.6641007,19.6587003 C50.4918008,19.6587003 51.1628008,18.9871003 51.1628008,18.1587003 L51.1628008,12.7357002 C51.1628008,12.3125002 50.9841008,11.9090002 50.6709008,11.6247002 L42.3577006,4.07790006 C41.7847006,3.55790005 40.9109006,3.55940005 40.3398006,4.08160006 L32.0867005,11.6284002 C31.7759005,11.9126002 31.5989005,12.3144002 31.5989005,12.7358002 L31.5989005,18.1588003 C31.5989005,18.9872003 32.2699005,19.6588003 33.0976005,19.6588003 L35.5697005,19.6588003 L35.5697005,48.1806007 L32.3673005,48.1806007 L32.3673005,27.1328004 C32.3673005,26.3044004 31.6963005,25.6328004 30.8686005,25.6328004 L22.3040003,25.6328004 C21.4763003,25.6328004 20.8053003,26.3044004 20.8053003,27.1328004 L20.8053003,48.1805007 L17.6274003,48.1805007 L17.6274003,33.2662005 C17.6274003,32.4378005 16.9564003,31.7662005 16.1287002,31.7662005 L7.56400011,31.7662005 C6.7363001,31.7662005 6.06530009,32.4378005 6.06530009,33.2662005 L6.06530009,48.1804007 L2.99750004,48.1804007 L2.99750004,1.50450002 C2.91830004,-0.485700007 0.0785000012,-0.484200007 0,1.50450002 L0,49.6804007 C0,50.5088008 0.67100001,51.1804008 1.49870002,51.1804008 L49.7020007,51.1804008 C51.6906008,51.1012008 51.6890008,48.2589007 49.7020007,48.1804007 Z M9.06280014,48.1804007 L9.06280014,34.7662005 L14.6300002,34.7662005 L14.6300002,48.1804007 L9.06280014,48.1804007 Z M23.8028004,28.6328004 L29.3700004,28.6328004 L29.3700004,48.1805007 L23.8028004,48.1805007 L23.8028004,28.6328004 Z M38.5673006,48.1804007 L38.5673006,18.1587003 C38.5673006,17.3303003 37.8963006,16.6587002 37.0686006,16.6587002 L34.5965005,16.6587002 L34.5965005,13.3970002 L41.3546006,7.21730011 L48.1654007,13.4002002 L48.1654007,16.6586002 L45.6332007,16.6586002 C44.8055007,16.6586002 44.1345007,17.3302003 44.1345007,18.1586003 L44.1345007,48.1804007 L38.5673006,48.1804007 Z" id="Shape"></path>
                    </g>
                </g>
            </g>
        </g>
    </g>
</svg>