<?xml version="1.0" encoding="UTF-8"?>
<svg width="40px" height="40px" viewBox="0 0 40 40" version="1.1" xmlns="http://www.w3.org/2000/svg" xmlns:xlink="http://www.w3.org/1999/xlink">
    <!-- Generator: sketchtool 59 (101010) - https://sketch.com -->
    <title>3646B4F1-085D-4739-98F5-3B75493D97C3@1.5x</title>
    <desc>Created with sketchtool.</desc>
    <g id="Style-Guide" stroke="none" stroke-width="1" fill="none" fill-rule="evenodd">
        <g id="Style-Guide---Website" transform="translate(-1025.000000, -629.000000)" fill="#FFFFFF" fill-rule="nonzero">
            <g id="telegram" transform="translate(1025.000000, 629.000000)">
                <path d="M19.692308,39.384616 C30.5706671,39.384616 39.384616,30.5706671 39.384616,19.692308 C39.384616,8.81394885 30.5706671,0 19.692308,0 C8.81394885,0 0,8.81394885 0,19.692308 C0,30.5706671 8.81394885,39.384616 19.692308,39.384616 Z M9.01087193,19.2656413 L27.9975389,11.9450258 C28.8787697,11.6266668 29.6484107,12.1600002 29.3628722,13.492513 L29.3645133,13.490872 L26.1316927,28.7212312 C25.8921029,29.8010261 25.2504619,30.0635902 24.3528209,29.5548722 L19.4297439,25.9265645 L17.0551797,28.2141543 C16.7926156,28.4767184 16.5710772,28.6982568 16.0623592,28.6982568 L16.4118977,23.6882055 L25.5360004,15.4453336 C25.9331286,15.0957951 25.447385,14.898872 24.9238978,15.2467695 L13.6484105,22.3458465 L8.78769244,20.8295388 C7.73251294,20.4947695 7.70953858,19.7743593 9.01087193,19.2656413 Z" id="Shape"></path>
            </g>
        </g>
    </g>
</svg>