<?xml version="1.0" encoding="UTF-8"?>
<svg width="40px" height="40px" viewBox="0 0 40 40" version="1.1" xmlns="http://www.w3.org/2000/svg" xmlns:xlink="http://www.w3.org/1999/xlink">
    <!-- Generator: sketchtool 59 (101010) - https://sketch.com -->
    <title>D647B166-6DB6-432D-A08D-D03CA8ED6CB0@1.5x</title>
    <desc>Created with sketchtool.</desc>
    <g id="Style-Guide" stroke="none" stroke-width="1" fill="none" fill-rule="evenodd">
        <g id="Style-Guide---Website" transform="translate(-1125.000000, -629.000000)">
            <g id="Group-12" transform="translate(1125.000000, 629.000000)">
                <path d="M20,0 C31.045695,0 40,8.954305 40,20 C40,31.045695 31.045695,40 20,40 C8.954305,40 -5.68434189e-14,31.045695 -5.68434189e-14,20 C-5.68434189e-14,8.954305 8.954305,0 20,0 Z M24.3373837,11 C21.8229223,11 19.7986147,13.040923 19.7986147,15.5429228 C19.7986147,15.9029228 19.8290763,16.2490766 19.9038455,16.5786151 C16.1279996,16.3944612 12.7869229,14.584769 10.5424614,11.828 C10.1506153,12.5078461 9.92076918,13.2859999 9.92076918,14.1236921 C9.92076918,15.6966151 10.7307691,17.0909227 11.9381537,17.8981534 C11.2084614,17.8843073 10.4926153,17.6724611 9.88615379,17.3387689 L9.88615379,17.388615 L9.88615379,17.388615 C9.88615379,19.5956918 11.4604614,21.4289225 13.5249228,21.8512301 C13.1552305,21.952307 12.7523075,22.0007686 12.3341536,22.0007686 C12.0433844,22.0007686 11.749846,21.9841532 11.4743075,21.9232301 C12.062769,23.7218454 13.7326151,25.044153 15.7181534,25.0870761 C14.1729228,26.2958452 12.2109229,27.0241529 10.086923,27.0241529 C9.7144615,27.0241529 9.35723075,27.0075375 9,26.9618452 C11.011846,28.2592297 13.3961536,29 15.9673842,29 C24.3249222,29 28.8941527,22.0769224 28.8941527,16.0759997 C28.8941527,15.8752305 28.8872296,15.6813843 28.8775373,15.4889228 C29.7789218,14.8492305 30.5363064,14.0503075 31.1538448,13.1309229 C30.3299987,13.4923075 29.4521526,13.731846 28.5369219,13.8481537 C29.4784603,13.2859999 30.1970757,12.4026153 30.5349218,11.3378461 C29.6570757,11.8612307 28.687845,12.230923 27.654922,12.4372307 C26.8213836,11.5496923 25.6333836,11 24.3373837,11 Z" id="Combined-Shape" fill="#FFFFFF"></path>
                <g id="twitter" transform="translate(9.000000, 11.000000)"></g>
            </g>
        </g>
    </g>
</svg>