<?xml version="1.0" encoding="UTF-8"?>
<svg width="40px" height="40px" viewBox="0 0 40 40" version="1.1" xmlns="http://www.w3.org/2000/svg" xmlns:xlink="http://www.w3.org/1999/xlink">
    <!-- Generator: sketchtool 59 (101010) - https://sketch.com -->
    <title>84FDFEFA-8CA3-4067-97FE-2B0A2A7117A7@1.5x</title>
    <desc>Created with sketchtool.</desc>
    <g id="Web" stroke="none" stroke-width="1" fill="none" fill-rule="evenodd" opacity="0.5">
        <g id="lp" transform="translate(-1651.000000, -6581.000000)">
            <g id="Group-31" transform="translate(1.000000, 6551.000000)">
                <g id="Group-14" transform="translate(1570.000000, 30.000000)">
                    <g id="Group-12" transform="translate(80.000000, 0.000000)">
                        <circle id="Oval" fill="#FFFFFF" cx="20" cy="20" r="20"></circle>
                        <g id="twitter" transform="translate(9.000000, 11.000000)" fill="#000000" fill-rule="nonzero">
                            <path d="M22.1538448,2.13092295 C21.3299987,2.49230754 20.4521526,2.73184599 19.5369219,2.84815368 C20.4784603,2.28599986 21.1970757,1.4026153 21.5349218,0.337846134 C20.6570757,0.861230718 19.687845,1.230923 18.654922,1.43723068 C17.8213836,0.549692275 16.6333836,0 15.3373837,0 C12.8229223,0 10.7986147,2.04092296 10.7986147,4.54292281 C10.7986147,4.90292278 10.8290763,5.24907661 10.9038455,5.57861505 C7.12799958,5.39446122 3.78692285,3.58476902 1.54246145,0.827999951 C1.15061532,1.50784606 0.920769176,2.28599986 0.920769176,3.12369212 C0.920769176,4.6966151 1.73076913,6.09092271 2.93815367,6.89815343 C2.20846141,6.88430728 1.4926153,6.67246114 0.886153793,6.33876885 C0.886153793,6.35261501 0.886153793,6.370615 0.886153793,6.388615 C0.886153793,8.5956918 2.46046139,10.4289225 4.52492281,10.8512301 C4.15523052,10.952307 3.75230747,11.0007686 3.33415365,11.0007686 C3.04338443,11.0007686 2.74984599,10.9841532 2.47430754,10.9232301 C3.06276905,12.7218454 4.7326151,14.044153 6.71815345,14.0870761 C5.17292277,15.2958452 3.21092289,16.0241529 1.08692301,16.0241529 C0.714461496,16.0241529 0.357230748,16.0075375 -5.68434189e-14,15.9618452 C2.01184603,17.2592297 4.39615358,18 6.9673842,18 C15.3249222,18 19.8941527,11.0769224 19.8941527,5.0759997 C19.8941527,4.87523048 19.8872296,4.68138434 19.8775373,4.48892281 C20.7789218,3.84923054 21.5363064,3.05030751 22.1538448,2.13092295 Z" id="Path"></path>
                        </g>
                    </g>
                </g>
            </g>
        </g>
    </g>
</svg>