<?xml version="1.0" encoding="UTF-8"?>
<svg width="92px" height="92px" viewBox="0 0 92 92" version="1.1" xmlns="http://www.w3.org/2000/svg" xmlns:xlink="http://www.w3.org/1999/xlink">
    <!-- Generator: sketchtool 59 (101010) - https://sketch.com -->
    <title>9309CABA-1908-42B0-99B8-1F55F5D70281@1.5x</title>
    <desc>Created with sketchtool.</desc>
    <g id="Web" stroke="none" stroke-width="1" fill="none" fill-rule="evenodd">
        <g id="mobile" transform="translate(-54.000000, -1959.000000)">
            <g id="Group-23" transform="translate(40.000000, 1959.000000)">
                <g id="voting" transform="translate(14.000000, 0.000000)">
                    <circle id="Oval" fill="#6050DC" cx="46" cy="46" r="46"></circle>
                    <g id="manual-voting" transform="translate(23.000000, 18.000000)" fill="#FFFFFF" fill-rule="nonzero">
                        <path d="M37.3333339,51.2000008 L1.06666668,51.2000008 C0.477866674,51.2000008 0,50.7221341 0,50.1333341 C0,49.5445341 0.477866674,49.0666674 1.06666668,49.0666674 L37.3333339,49.0666674 C37.9221339,49.0666674 38.4000006,49.5445341 38.4000006,50.1333341 C38.4000006,50.7221341 37.9221339,51.2000008 37.3333339,51.2000008 Z" id="Path"></path>
                        <path d="M45.5850673,20.6677336 C45.5808007,20.6677336 45.5786673,20.6677336 45.5744007,20.6677336 C44.7168007,20.6656003 43.912534,20.3264003 43.3088006,19.7184003 L31.5242671,7.79946678 C30.2912005,6.55146676 30.2976005,4.5269334 31.5392005,3.28746672 L33.8858672,0.940800014 C35.1317339,-0.307200005 37.1648006,-0.307200005 38.4106672,0.940800014 L50.2634674,12.7914669 C51.5114674,14.0394669 51.5114674,16.0704002 50.2634674,17.3184003 L47.848534,19.7333336 C47.2426674,20.3349336 46.440534,20.6677336 45.5850673,20.6677336 L45.5850673,20.6677336 Z M36.1472005,2.13333337 C35.8741339,2.13333337 35.6010672,2.23573337 35.3920005,2.44480004 L33.0453338,4.79146674 C32.6314672,5.20533341 32.6293338,5.87946675 33.0389338,6.29546676 L44.8234673,18.2144003 C45.0240007,18.4170669 45.2928007,18.5301336 45.5786673,18.5301336 C45.826134,18.4682669 46.133334,18.4213336 46.3360007,18.2165336 L48.7509341,15.8037336 C49.1669341,15.3877336 49.1669341,14.7114669 48.7509341,14.2933335 L36.8981339,2.4426667 C36.6933339,2.2378667 36.4202672,2.13333337 36.1472005,2.13333337 Z" id="Shape"></path>
                        <path d="M12.4885335,26.8501337 C12.0298668,26.8501337 11.6053335,26.5514671 11.4666668,26.0906671 C11.0976002,24.8640004 10.9098668,23.5904004 10.9098668,22.3061337 C10.9098668,20.2901336 11.3920002,18.2549336 12.2986668,16.4160002 C14.0160002,12.9834669 17.1456003,10.4704002 20.887467,9.51680014 L32.5568005,6.55146676 C33.1328005,6.39786676 33.7066672,6.7520001 33.8517338,7.32160011 C33.9968005,7.89120012 33.6512005,8.47360013 33.0816005,8.61653346 L21.412267,11.5818668 C18.2720003,12.3840002 15.6480002,14.4917335 14.2101335,17.3653336 C13.4485335,18.9077336 13.0432002,20.6165336 13.0432002,22.3061337 C13.0432002,23.3813337 13.1989335,24.4480004 13.5082669,25.4784004 C13.6789335,26.0416004 13.3589335,26.6368004 12.7936002,26.8074671 C12.6912002,26.8352004 12.5888002,26.8501337 12.4885335,26.8501337 L12.4885335,26.8501337 Z" id="Path"></path>
                        <path d="M23.965867,41.582934 C22.250667,41.582934 20.701867,40.6997339 19.8208003,39.2213339 C18.6965336,37.3312006 19.0592003,34.8565339 20.701867,33.2053338 L28.2346671,25.6597337 C27.3386671,24.586667 26.0245337,24.0000004 24.5824004,24.0725337 C23.0613337,24.151467 21.700267,24.989867 20.945067,26.3146671 C20.6485336,26.8288004 19.9936003,27.0016004 19.4880003,26.7114671 C18.9781336,26.4192004 18.7989336,25.7685337 19.089067,25.2565337 C20.2069336,23.300267 22.218667,22.0608003 24.4693337,21.9413337 C26.7114671,21.8197337 28.8512004,22.845867 30.1696004,24.676267 L30.5024005,25.1392004 C30.8010671,25.5552004 30.7626671,26.1269337 30.4085338,26.4981337 L22.2080003,34.7114672 C21.2693337,35.6565339 21.0325336,37.0944006 21.649067,38.1290672 C22.5216003,39.5989339 24.701867,39.8442673 25.8965337,38.6517339 L35.1594672,29.2437338 L42.5856006,17.8005336 C42.907734,17.3056003 43.5690673,17.1669336 44.059734,17.4869336 C44.552534,17.8069336 44.693334,18.4682669 44.3712007,18.9610669 L36.8853339,30.4960005 C36.8469339,30.5578671 36.8021339,30.6133338 36.7509339,30.6666671 L27.4090671,40.1557339 C26.4917337,41.0773339 25.2693337,41.582934 23.965867,41.582934 L23.965867,41.582934 Z" id="Path"></path>
                        <path d="M33.1029338,51.2000008 L5.33333341,51.2000008 C4.7445334,51.2000008 4.26666673,50.7221341 4.26666673,50.1333341 L4.26666673,26.6666671 C4.26666673,26.0778671 4.7445334,25.6000004 5.33333341,25.6000004 L28.7381338,25.6000004 C29.3269338,25.6000004 29.8048004,26.0778671 29.8048004,26.6666671 C29.8048004,27.2554671 29.3269338,27.7333337 28.7381338,27.7333337 L6.4000001,27.7333337 L6.4000001,49.0666674 L32.0362671,49.0666674 L32.0362671,32.8576005 C32.0362671,32.2688005 32.5141338,31.7909338 33.1029338,31.7909338 C33.6917338,31.7909338 34.1696005,32.2688005 34.1696005,32.8576005 L34.1696005,50.1333341 C34.1696005,50.7221341 33.6917338,51.2000008 33.1029338,51.2000008 Z" id="Path"></path>
                    </g>
                </g>
            </g>
        </g>
    </g>
</svg>